<svg width="1029" height="171" viewBox="0 0 1029 171" fill="none" xmlns="http://www.w3.org/2000/svg">
<path d="M29.3945 47.3945V86.0664H63.4765C70.2474 86.0664 75.3255 85.2851 78.7109 83.7226C84.7005 80.9882 87.6953 75.5846 87.6953 67.5117C87.6953 58.7877 84.7981 52.9283 79.0039 49.9336C75.7487 48.2408 70.8659 47.3945 64.3554 47.3945H29.3945ZM70.6054 22.3945C80.6966 22.5898 88.444 23.8268 93.8476 26.1055C99.316 28.3841 103.939 31.7369 107.715 36.164C110.84 39.8099 113.314 43.8463 115.137 48.2734C116.96 52.7005 117.871 57.746 117.871 63.4101C117.871 70.246 116.146 76.9843 112.695 83.625C109.245 90.2005 103.548 94.8554 95.6054 97.5898C102.246 100.259 106.934 104.068 109.668 109.016C112.467 113.898 113.867 121.386 113.867 131.477V141.145C113.867 147.72 114.128 152.18 114.648 154.524C115.43 158.235 117.253 160.969 120.117 162.727V166.34H87.0117C86.1002 163.15 85.4492 160.578 85.0586 158.625C84.2773 154.589 83.8541 150.455 83.789 146.223L83.5937 132.844C83.4635 123.664 81.7708 117.544 78.5156 114.484C75.3255 111.424 69.3034 109.895 60.4492 109.895H29.3945V166.34H0V22.3945H70.6054ZM250.293 47.8828H174.121V78.4492H244.043V103.449H174.121V140.461H253.809V166.34H144.727V22.3945H250.293V47.8828ZM299.023 121.906C299.935 128.482 301.725 133.397 304.394 136.652C309.277 142.577 317.643 145.539 329.492 145.539C336.589 145.539 342.35 144.758 346.777 143.195C355.176 140.201 359.375 134.634 359.375 126.496C359.375 121.744 357.292 118.065 353.125 115.461C348.958 112.922 342.415 110.676 333.496 108.723L318.262 105.305C303.288 101.919 292.936 98.2408 287.207 94.2695C277.506 87.6289 272.656 77.2447 272.656 63.1171C272.656 50.2265 277.344 39.5169 286.719 30.9882C296.094 22.4596 309.863 18.1953 328.027 18.1953C343.197 18.1953 356.12 22.2318 366.797 30.3046C377.539 38.3125 383.171 49.9661 383.691 65.2656H354.785C354.264 56.6067 350.488 50.4544 343.457 46.8086C338.77 44.3997 332.943 43.1953 325.977 43.1953C318.229 43.1953 312.044 44.7578 307.422 47.8828C302.799 51.0078 300.488 55.3697 300.488 60.9687C300.488 66.1119 302.767 69.9531 307.324 72.4921C310.254 74.1849 316.504 76.1705 326.074 78.4492L350.879 84.4062C361.751 87.0104 369.954 90.4934 375.488 94.8554C384.082 101.626 388.379 111.424 388.379 124.25C388.379 137.401 383.333 148.339 373.242 157.063C363.216 165.722 349.023 170.051 330.664 170.051C311.914 170.051 297.168 165.787 286.426 157.258C275.684 148.664 270.312 136.88 270.312 121.906H299.023ZM494.922 22.3945H526.172L477.051 166.34H448.633L400 22.3945H432.129L463.379 131.672L494.922 22.3945ZM607.715 144.856C619.629 144.856 629.069 140.461 636.035 131.672C643.066 122.883 646.582 110.383 646.582 94.1718C646.582 78.026 643.066 65.5586 636.035 56.7695C629.069 47.9153 619.629 43.4882 607.715 43.4882C595.801 43.4882 586.296 47.8828 579.199 56.6718C572.103 65.4609 568.555 77.9609 568.555 94.1718C568.555 110.383 572.103 122.883 579.199 131.672C586.296 140.461 595.801 144.856 607.715 144.856ZM676.66 94.1718C676.66 120.018 669.401 139.81 654.883 153.547C644.01 164.745 628.288 170.344 607.715 170.344C587.142 170.344 571.419 164.745 560.547 153.547C545.964 139.81 538.672 120.018 538.672 94.1718C538.672 67.8046 545.964 48.013 560.547 34.7968C571.419 23.599 587.142 18 607.715 18C628.288 18 644.01 23.599 654.883 34.7968C669.401 48.013 676.66 67.8046 676.66 94.1718ZM699.219 22.3945H730.762L788.086 122.883V22.3945H816.113V166.34H786.035L727.246 64.0937V166.34H699.219V22.3945ZM883.594 111.945H920.117L902.148 55.3046L883.594 111.945ZM885.449 22.3945H919.434L970.41 166.34H937.793L928.516 136.75H875.488L865.527 166.34H834.082L885.449 22.3945Z" fill="black"/>
<path d="M987.502 0H960.312C959.591 0 959 0.590625 959 1.3125V6.02656C959 6.74844 959.591 7.33906 960.312 7.33906H969.62V33.6875C969.62 34.4094 970.21 35 970.932 35H976.871C977.593 35 978.183 34.4094 978.183 33.6875V7.33906H987.491C988.213 7.33906 988.803 6.74844 988.803 6.02656V1.3125C988.814 0.590625 988.224 0 987.502 0ZM1029 33.5781L1026.37 1.20312C1026.32 0.525 1025.75 0 1025.06 0H1017.91C1017.35 0 1016.85 0.360937 1016.67 0.885937L1011.88 14.7875C1011.09 17.0406 1010.12 20.5625 1010.12 20.5625H1010.02C1010.02 20.5625 1009.05 17.0406 1008.26 14.7875L1003.47 0.885937C1003.28 0.360937 1002.79 0 1002.23 0H995.081C994.403 0 993.834 0.525 993.769 1.20312L991.1 33.5781C991.034 34.3438 991.636 35 992.412 35H998.373C999.062 35 999.631 34.4641 999.685 33.775L1000.68 19.2391C1000.88 16.5922 1000.68 13.3656 1000.68 13.3656H1000.78C1000.78 13.3656 1001.95 17.0406 1002.74 19.2391L1006.09 28.5031C1006.28 29.0172 1006.77 29.3672 1007.33 29.3672H1012.83C1013.39 29.3672 1013.88 29.0172 1014.07 28.5031L1017.43 19.2391C1018.21 17.0406 1019.38 13.3656 1019.38 13.3656H1019.48C1019.48 13.3656 1019.28 16.5922 1019.48 19.2391L1020.48 33.775C1020.52 34.4641 1021.1 35 1021.79 35H1027.68C1028.45 35 1029.05 34.3438 1029 33.5781V33.5781Z" fill="black"/>
</svg>
